<svg height="512pt" viewBox="-61 0 512 512" width="512pt" xmlns="http://www.w3.org/2000/svg"><path d="m375 0h-360c-8.285156 0-15 6.714844-15 15v482c0 8.285156 6.714844 15 15 15h360c8.285156 0 15-6.714844 15-15v-482c0-8.285156-6.714844-15-15-15zm-15 482h-330v-452h330zm0 0"/><path d="m195 301c57.898438 0 105-47.101562 105-105 0-8.285156-6.714844-15-15-15s-15 6.714844-15 15c0 41.355469-33.644531 75-75 75s-75-33.644531-75-75c0-8.285156-6.714844-15-15-15s-15 6.714844-15 15c0 57.898438 47.101562 105 105 105zm0 0"/><path d="m75 452h60c8.285156 0 15-6.714844 15-15s-6.714844-15-15-15h-60c-8.285156 0-15 6.714844-15 15s6.714844 15 15 15zm0 0"/><path d="m315 422h-120c-8.285156 0-15 6.714844-15 15s6.714844 15 15 15h120c8.285156 0 15-6.714844 15-15s-6.714844-15-15-15zm0 0"/><path d="m105 121h15v15c0 8.285156 6.714844 15 15 15s15-6.714844 15-15v-15h15c8.285156 0 15-6.714844 15-15s-6.714844-15-15-15h-15v-15c0-8.285156-6.714844-15-15-15s-15 6.714844-15 15v15h-15c-8.285156 0-15 6.714844-15 15s6.714844 15 15 15zm0 0"/><path d="m254.851562 121c8.351563 0 15.148438-6.796875 15.148438-15.148438 0-8.355468-6.796875-14.851562-15.148438-14.851562-8.355468 0-14.851562 6.496094-14.851562 14.851562 0 8.351563 6.496094 15.148438 14.851562 15.148438zm0 0"/><path d="m150 196c0 24.8125 20.1875 45 45 45s45-20.1875 45-45-20.1875-45-45-45-45 20.1875-45 45zm45-15c8.269531 0 15 6.730469 15 15s-6.730469 15-15 15-15-6.730469-15-15 6.730469-15 15-15zm0 0"/><path d="m75 392h240c8.285156 0 15-6.714844 15-15s-6.714844-15-15-15h-240c-8.285156 0-15 6.714844-15 15s6.714844 15 15 15zm0 0"/></svg>